{
    "accessors" : [
        {
            "bufferView" : 0, 
            "componentType" : 5121, 
            "count" : 36, 
            "max" : [
                23
            ], 
            "min" : [
                0
            ], 
            "type" : "SCALAR"
        }, 
        {
            "bufferView" : 1, 
            "componentType" : 5126, 
            "count" : 24, 
            "max" : [
                1.0, 
                1.0, 
                1.0
            ], 
            "min" : [
                -1.0, 
                -1.0, 
                -1.0
            ], 
            "type" : "VEC3"
        }, 
        {
            "bufferView" : 2, 
            "componentType" : 5126, 
            "count" : 24, 
            "max" : [
                1.0, 
                1.0, 
                1.0
            ], 
            "min" : [
                -1.0, 
                -1.0, 
                -1.0
            ], 
            "type" : "VEC3"
        }, 
        {
            "bufferView" : 3, 
            "componentType" : 5121, 
            "count" : 36, 
            "max" : [
                23
            ], 
            "min" : [
                0
            ], 
            "type" : "SCALAR"
        }, 
        {
            "bufferView" : 4, 
            "componentType" : 5126, 
            "count" : 24, 
            "max" : [
                1.0, 
                1.0, 
                1.0
            ], 
            "min" : [
                -1.0, 
                -1.0, 
                -1.0
            ], 
            "type" : "VEC3"
        }, 
        {
            "bufferView" : 5, 
            "componentType" : 5126, 
            "count" : 24, 
            "max" : [
                1.0, 
                1.0, 
                1.0
            ], 
            "min" : [
                -1.0, 
                -1.0, 
                -1.0
            ], 
            "type" : "VEC3"
        }, 
        {
            "bufferView" : 6, 
            "componentType" : 5121, 
            "count" : 312, 
            "max" : [
                169
            ], 
            "min" : [
                0
            ], 
            "type" : "SCALAR"
        }, 
        {
            "bufferView" : 7, 
            "componentType" : 5126, 
            "count" : 170, 
            "max" : [
                3.4598498344421387, 
                11.797800064086914, 
                4.317999839782715
            ], 
            "min" : [
                -3.4598498344421387, 
                -11.797800064086914, 
                -4.249300003051758
            ], 
            "type" : "VEC3"
        }, 
        {
            "bufferView" : 8, 
            "componentType" : 5126, 
            "count" : 170, 
            "max" : [
                1.0, 
                1.0, 
                1.0
            ], 
            "min" : [
                -1.0, 
                -1.0, 
                -1.0
            ], 
            "type" : "VEC3"
        }, 
        {
            "bufferView" : 9, 
            "componentType" : 5126, 
            "count" : 170, 
            "max" : [
                1.0, 
                0.0, 
                -0.0, 
                1.0
            ], 
            "min" : [
                1.0, 
                0.0, 
                -0.0, 
                -1.0
            ], 
            "type" : "VEC4"
        }, 
        {
            "bufferView" : 10, 
            "componentType" : 5126, 
            "count" : 170, 
            "max" : [
                0.916700005531311, 
                0.10670000314712524
            ], 
            "min" : [
                0.8166999816894531, 
                0.0067999958992004395
            ], 
            "type" : "VEC2"
        }, 
        {
            "bufferView" : 11, 
            "componentType" : 5121, 
            "count" : 252, 
            "max" : [
                167
            ], 
            "min" : [
                0
            ], 
            "type" : "SCALAR"
        }, 
        {
            "bufferView" : 12, 
            "componentType" : 5126, 
            "count" : 168, 
            "max" : [
                2.708549976348877, 
                11.477800369262695, 
                0.8997999429702759
            ], 
            "min" : [
                -3.088820457458496, 
                -11.49317455291748, 
                -3.9039711952209473
            ], 
            "type" : "VEC3"
        }, 
        {
            "bufferView" : 13, 
            "componentType" : 5126, 
            "count" : 168, 
            "max" : [
                1.0, 
                1.0, 
                1.0
            ], 
            "min" : [
                -1.0, 
                -1.0, 
                -1.0
            ], 
            "type" : "VEC3"
        }, 
        {
            "bufferView" : 14, 
            "componentType" : 5126, 
            "count" : 168, 
            "max" : [
                1.0, 
                1.0, 
                -0.0, 
                1.0
            ], 
            "min" : [
                0.0, 
                0.0, 
                -0.0, 
                -1.0
            ], 
            "type" : "VEC4"
        }, 
        {
            "bufferView" : 15, 
            "componentType" : 5126, 
            "count" : 168, 
            "max" : [
                0.22540000081062317, 
                0.22649997472763062
            ], 
            "min" : [
                0.11969999969005585, 
                0.12080001831054688
            ], 
            "type" : "VEC2"
        }, 
        {
            "bufferView" : 16, 
            "componentType" : 5121, 
            "count" : 36, 
            "max" : [
                23
            ], 
            "min" : [
                0
            ], 
            "type" : "SCALAR"
        }, 
        {
            "bufferView" : 17, 
            "componentType" : 5126, 
            "count" : 24, 
            "max" : [
                1.0, 
                1.0, 
                1.0
            ], 
            "min" : [
                -1.0, 
                -1.0, 
                -1.0
            ], 
            "type" : "VEC3"
        }, 
        {
            "bufferView" : 18, 
            "componentType" : 5126, 
            "count" : 24, 
            "max" : [
                1.0, 
                1.0, 
                1.0
            ], 
            "min" : [
                -1.0, 
                -1.0, 
                -1.0
            ], 
            "type" : "VEC3"
        }, 
        {
            "bufferView" : 19, 
            "componentType" : 5123, 
            "count" : 43899, 
            "max" : [
                34618
            ], 
            "min" : [
                0
            ], 
            "type" : "SCALAR"
        }, 
        {
            "bufferView" : 20, 
            "componentType" : 5126, 
            "count" : 34619, 
            "max" : [
                1.2976727485656738, 
                0.6538540124893188, 
                0.5558486580848694
            ], 
            "min" : [
                -1.3093724250793457, 
                -0.6496685743331909, 
                -0.8149755001068115
            ], 
            "type" : "VEC3"
        }, 
        {
            "bufferView" : 21, 
            "componentType" : 5126, 
            "count" : 34619, 
            "max" : [
                1.0, 
                1.0, 
                1.0
            ], 
            "min" : [
                -1.0, 
                -1.0, 
                -1.0
            ], 
            "type" : "VEC3"
        }, 
        {
            "bufferView" : 22, 
            "componentType" : 5126, 
            "count" : 34619, 
            "max" : [
                0.9869111776351929, 
                1.0
            ], 
            "min" : [
                0.0, 
                0.019675135612487793
            ], 
            "type" : "VEC2"
        }, 
        {
            "bufferView" : 23, 
            "componentType" : 5126, 
            "count" : 34619, 
            "max" : [
                1.0, 
                1.0, 
                1.0, 
                1.0
            ], 
            "min" : [
                1.0, 
                1.0, 
                1.0, 
                1.0
            ], 
            "type" : "VEC4"
        }, 
        {
            "bufferView" : 24, 
            "componentType" : 5121, 
            "count" : 84, 
            "max" : [
                47
            ], 
            "min" : [
                0
            ], 
            "type" : "SCALAR"
        }, 
        {
            "bufferView" : 25, 
            "componentType" : 5126, 
            "count" : 48, 
            "max" : [
                1.0, 
                1.0, 
                1.0
            ], 
            "min" : [
                -1.0, 
                -1.0, 
                -1.0
            ], 
            "type" : "VEC3"
        }, 
        {
            "bufferView" : 26, 
            "componentType" : 5126, 
            "count" : 48, 
            "max" : [
                0.9238795638084412, 
                0.9999999403953552, 
                0.9238795638084412
            ], 
            "min" : [
                -0.9238795042037964, 
                -0.9999999403953552, 
                -0.9238795638084412
            ], 
            "type" : "VEC3"
        }
    ], 
    "asset" : {
        "generator" : "Khronos Blender glTF 2.0 exporter", 
        "version" : "2.0"
    }, 
    "bufferViews" : [
        {
            "buffer" : 0, 
            "byteLength" : 36, 
            "byteOffset" : 0, 
            "target" : 34963
        }, 
        {
            "buffer" : 0, 
            "byteLength" : 288, 
            "byteOffset" : 36, 
            "target" : 34962
        }, 
        {
            "buffer" : 0, 
            "byteLength" : 288, 
            "byteOffset" : 324, 
            "target" : 34962
        }, 
        {
            "buffer" : 0, 
            "byteLength" : 36, 
            "byteOffset" : 612, 
            "target" : 34963
        }, 
        {
            "buffer" : 0, 
            "byteLength" : 288, 
            "byteOffset" : 648, 
            "target" : 34962
        }, 
        {
            "buffer" : 0, 
            "byteLength" : 288, 
            "byteOffset" : 936, 
            "target" : 34962
        }, 
        {
            "buffer" : 0, 
            "byteLength" : 312, 
            "byteOffset" : 1224, 
            "target" : 34963
        }, 
        {
            "buffer" : 0, 
            "byteLength" : 2040, 
            "byteOffset" : 1536, 
            "target" : 34962
        }, 
        {
            "buffer" : 0, 
            "byteLength" : 2040, 
            "byteOffset" : 3576, 
            "target" : 34962
        }, 
        {
            "buffer" : 0, 
            "byteLength" : 2720, 
            "byteOffset" : 5616, 
            "target" : 34962
        }, 
        {
            "buffer" : 0, 
            "byteLength" : 1360, 
            "byteOffset" : 8336, 
            "target" : 34962
        }, 
        {
            "buffer" : 0, 
            "byteLength" : 252, 
            "byteOffset" : 9696, 
            "target" : 34963
        }, 
        {
            "buffer" : 0, 
            "byteLength" : 2016, 
            "byteOffset" : 9948, 
            "target" : 34962
        }, 
        {
            "buffer" : 0, 
            "byteLength" : 2016, 
            "byteOffset" : 11964, 
            "target" : 34962
        }, 
        {
            "buffer" : 0, 
            "byteLength" : 2688, 
            "byteOffset" : 13980, 
            "target" : 34962
        }, 
        {
            "buffer" : 0, 
            "byteLength" : 1344, 
            "byteOffset" : 16668, 
            "target" : 34962
        }, 
        {
            "buffer" : 0, 
            "byteLength" : 36, 
            "byteOffset" : 18012, 
            "target" : 34963
        }, 
        {
            "buffer" : 0, 
            "byteLength" : 288, 
            "byteOffset" : 18048, 
            "target" : 34962
        }, 
        {
            "buffer" : 0, 
            "byteLength" : 288, 
            "byteOffset" : 18336, 
            "target" : 34962
        }, 
        {
            "buffer" : 0, 
            "byteLength" : 87798, 
            "byteOffset" : 18624, 
            "target" : 34963
        }, 
        {
            "buffer" : 0, 
            "byteLength" : 415428, 
            "byteOffset" : 106424, 
            "target" : 34962
        }, 
        {
            "buffer" : 0, 
            "byteLength" : 415428, 
            "byteOffset" : 521852, 
            "target" : 34962
        }, 
        {
            "buffer" : 0, 
            "byteLength" : 276952, 
            "byteOffset" : 937280, 
            "target" : 34962
        }, 
        {
            "buffer" : 0, 
            "byteLength" : 553904, 
            "byteOffset" : 1214232, 
            "target" : 34962
        }, 
        {
            "buffer" : 0, 
            "byteLength" : 84, 
            "byteOffset" : 1768136, 
            "target" : 34963
        }, 
        {
            "buffer" : 0, 
            "byteLength" : 576, 
            "byteOffset" : 1768220, 
            "target" : 34962
        }, 
        {
            "buffer" : 0, 
            "byteLength" : 576, 
            "byteOffset" : 1768796, 
            "target" : 34962
        }
    ], 
    "buffers" : [
        {
            "byteLength" : 1769372, 
            "uri" : "data:application/octet-stream;base64,"
        }
    ], 
    "images" : [
        {
            "uri" : "data:image/png;base64,"
        }
    ], 
    "materials" : [
        {
            "name" : "Mat_Texture", 
            "pbrMetallicRoughness" : {
                "baseColorFactor" : [
                    0.6400000190734865, 
                    0.6400000190734865, 
                    0.6400000190734865, 
                    1.0
                ], 
                "baseColorTexture" : {
                    "index" : 0
                }, 
                "metallicFactor" : 0.0
            }
        }, 
        {
            "alphaMode" : "BLEND", 
            "name" : "Material__202", 
            "pbrMetallicRoughness" : {
                "baseColorFactor" : [
                    0.1843000054359436, 
                    0.0940999984741211, 
                    0.03139999881386757, 
                    1.0
                ], 
                "metallicFactor" : 0.0
            }
        }, 
        {
            "alphaMode" : "BLEND", 
            "name" : "Material__214", 
            "pbrMetallicRoughness" : {
                "baseColorFactor" : [
                    0.3961000144481659, 
                    0.3961000144481659, 
                    0.3961000144481659, 
                    1.0
                ], 
                "metallicFactor" : 0.0
            }
        }
    ], 
    "meshes" : [
        {
            "name" : "Cube.003", 
            "primitives" : [
                {
                    "attributes" : {
                        "NORMAL" : 2, 
                        "POSITION" : 1
                    }, 
                    "indices" : 0
                }
            ]
        }, 
        {
            "name" : "Cube.002", 
            "primitives" : [
                {
                    "attributes" : {
                        "NORMAL" : 5, 
                        "POSITION" : 4
                    }, 
                    "indices" : 3
                }
            ]
        }, 
        {
            "name" : "woodPlanksBench001", 
            "primitives" : [
                {
                    "attributes" : {
                        "NORMAL" : 8, 
                        "POSITION" : 7, 
                        "TANGENT" : 9, 
                        "TEXCOORD_0" : 10
                    }, 
                    "indices" : 6, 
                    "material" : 2
                }, 
                {
                    "attributes" : {
                        "NORMAL" : 13, 
                        "POSITION" : 12, 
                        "TANGENT" : 14, 
                        "TEXCOORD_0" : 15
                    }, 
                    "indices" : 11, 
                    "material" : 1
                }
            ]
        }, 
        {
            "name" : "Cube.001", 
            "primitives" : [
                {
                    "attributes" : {
                        "NORMAL" : 18, 
                        "POSITION" : 17
                    }, 
                    "indices" : 16
                }
            ]
        }, 
        {
            "name" : "PERSONAJE personaje Subdivisi_n_Superficie_1 personaje1 per.002", 
            "primitives" : [
                {
                    "attributes" : {
                        "COLOR_0" : 23, 
                        "NORMAL" : 21, 
                        "POSITION" : 20, 
                        "TEXCOORD_0" : 22
                    }, 
                    "indices" : 19, 
                    "material" : 0
                }
            ]
        }, 
        {
            "name" : "Cylinder", 
            "primitives" : [
                {
                    "attributes" : {
                        "NORMAL" : 26, 
                        "POSITION" : 25
                    }, 
                    "indices" : 24
                }
            ]
        }
    ], 
    "nodes" : [
        {
            "mesh" : 0, 
            "name" : "Chair_collider", 
            "scale" : [
                1.6457316875457764, 
                0.8517407178878784, 
                0.5297766327857971
            ], 
            "translation" : [
                -0.3248981237411499, 
                0.20168545842170715, 
                -6.444438457489014
            ]
        }, 
        {
            "mesh" : 5, 
            "name" : "Fuente_collider", 
            "scale" : [
                2.8681325912475586, 
                1.2592644691467285, 
                2.8681325912475586
            ], 
            "translation" : [
                -0.013580277562141418, 
                0.7954943180084229, 
                0.006043910980224609
            ]
        }, 
        {
            "mesh" : 4, 
            "name" : "PERSONAJE personaje Subdivisi_n_Superficie_1 personaje1 per.002", 
            "rotation" : [
                0.5000000596046448, 
                -0.4999999403953552, 
                0.5000000596046448, 
                0.4999999403953552
            ], 
            "scale" : [
                7.671520709991455, 
                7.671520709991455, 
                7.671520709991455
            ], 
            "translation" : [
                0.01605374366044998, 
                4.1780290603637695, 
                0.044877514243125916
            ]
        }, 
        {
            "mesh" : 1, 
            "name" : "Tree2_collider", 
            "scale" : [
                0.5006694197654724, 
                1.3091909885406494, 
                0.5006694197654724
            ], 
            "translation" : [
                -2.0432348251342773, 
                1.0370739698410034, 
                3.3807902336120605
            ]
        }, 
        {
            "mesh" : 3, 
            "name" : "Tree_collider", 
            "scale" : [
                0.5006694197654724, 
                1.3091909885406494, 
                0.5006694197654724
            ], 
            "translation" : [
                1.811905860900879, 
                1.0370739698410034, 
                3.161787986755371
            ]
        }, 
        {
            "mesh" : 2, 
            "name" : "woodPlanksBench001", 
            "rotation" : [
                0.5016146898269653, 
                -0.4983800947666168, 
                0.498380184173584, 
                0.5016146302223206
            ], 
            "scale" : [
                0.1292116492986679, 
                0.1292116492986679, 
                0.1292116492986679
            ], 
            "translation" : [
                -0.27376171946525574, 
                0.5141803622245789, 
                -6.438479423522949
            ]
        }
    ], 
    "samplers" : [
        {}
    ], 
    "scene" : 0, 
    "scenes" : [
        {
            "name" : "Scene", 
            "nodes" : [
                0, 
                1, 
                3, 
                4, 
                5, 
                2
            ]
        }
    ], 
    "textures" : [
        {
            "sampler" : 0, 
            "source" : 0
        }
    ]
}
