{
  "accessors": [
    {
      "bufferView": 0,
      "componentType": 5121,
      "count": 30,
      "max": [19],
      "min": [0],
      "type": "SCALAR"
    },
    {
      "bufferView": 1,
      "componentType": 5126,
      "count": 20,
      "max": [4.358572006225586, 2.2126522064208984, 1.0000004768371582],
      "min": [-3.5558853149414062, -0.0006208270788192749, -1.0000003576278687],
      "type": "VEC3"
    },
    {
      "bufferView": 2,
      "componentType": 5126,
      "count": 20,
      "max": [0.36775994300842285, 1.0, 0.9999999403953552],
      "min": [-1.0, -1.986264095421575e-7, -0.9999999403953552],
      "type": "VEC3"
    },
    {
      "bufferView": 3,
      "componentType": 5121,
      "count": 396,
      "max": [238],
      "min": [0],
      "type": "SCALAR"
    },
    {
      "bufferView": 4,
      "componentType": 5126,
      "count": 239,
      "max": [3.7094671726226807, 2.4572348594665527, 1.0000004768371582],
      "min": [-3.5558853149414062, 0.24396181106567383, -1.0000003576278687],
      "type": "VEC3"
    },
    {
      "bufferView": 5,
      "componentType": 5126,
      "count": 239,
      "max": [1.0, 1.0, 1.0],
      "min": [-1.0, -1.0, -1.0],
      "type": "VEC3"
    }
  ],
  "asset": {
    "generator": "Khronos Blender glTF 2.0 exporter",
    "version": "2.0"
  },
  "bufferViews": [
    {
      "buffer": 0,
      "byteLength": 30,
      "byteOffset": 0,
      "target": 34963
    },
    {
      "buffer": 0,
      "byteLength": 240,
      "byteOffset": 32,
      "target": 34962
    },
    {
      "buffer": 0,
      "byteLength": 240,
      "byteOffset": 272,
      "target": 34962
    },
    {
      "buffer": 0,
      "byteLength": 396,
      "byteOffset": 512,
      "target": 34963
    },
    {
      "buffer": 0,
      "byteLength": 2868,
      "byteOffset": 908,
      "target": 34962
    },
    {
      "buffer": 0,
      "byteLength": 2868,
      "byteOffset": 3776,
      "target": 34962
    }
  ],
  "buffers": [
    {
      "byteLength": 6644,
      "uri":
        "data:application/octet-stream;base64,"
    }
  ],
  "materials": [
    {
      "name": "Material",
      "pbrMetallicRoughness": {
        "baseColorFactor": [0.6400000190734865, 0.6400000190734865, 0.6400000190734865, 1.0],
        "metallicFactor": 0.0
      }
    }
  ],
  "meshes": [
    {
      "name": "Cube.002",
      "primitives": [
        {
          "attributes": {
            "NORMAL": 2,
            "POSITION": 1
          },
          "indices": 0,
          "material": 0
        }
      ]
    },
    {
      "name": "Cube",
      "primitives": [
        {
          "attributes": {
            "NORMAL": 5,
            "POSITION": 4
          },
          "indices": 3,
          "material": 0
        }
      ]
    }
  ],
  "nodes": [
    {
      "mesh": 1,
      "name": "cube",
      "scale": [1.0, 1.0, 3.8833391666412354],
      "translation": [0.010614394210278988, -0.2465396374464035, -0.0]
    },
    {
      "mesh": 0,
      "name": "cube_collider",
      "scale": [1.0, 1.0, 3.8833391666412354],
      "translation": [0.01048828661441803, 0.0, -0.0]
    }
  ],
  "scene": 0,
  "scenes": [
    {
      "name": "Scene",
      "nodes": [1, 0]
    }
  ]
}
