{
    "accessors" : [
        {
            "bufferView" : 0, 
            "componentType" : 5121, 
            "count" : 12, 
            "max" : [
                11
            ], 
            "min" : [
                0
            ], 
            "type" : "SCALAR"
        }, 
        {
            "bufferView" : 1, 
            "componentType" : 5126, 
            "count" : 12, 
            "max" : [
                0.8660253882408142, 
                1.0, 
                0.5000000596046448
            ], 
            "min" : [
                -0.866025447845459, 
                -1.0, 
                -1.0
            ], 
            "type" : "VEC3"
        }, 
        {
            "bufferView" : 2, 
            "componentType" : 5126, 
            "count" : 12, 
            "max" : [
                0.8401681184768677, 
                0.24253565073013306, 
                0.9701426029205322
            ], 
            "min" : [
                -0.8401679992675781, 
                -0.9999999403953552, 
                -0.4850713014602661
            ], 
            "type" : "VEC3"
        }, 
        {
            "bufferView" : 3, 
            "componentType" : 5123, 
            "count" : 1116, 
            "max" : [
                568
            ], 
            "min" : [
                0
            ], 
            "type" : "SCALAR"
        }, 
        {
            "bufferView" : 4, 
            "componentType" : 5126, 
            "count" : 569, 
            "max" : [
                0.045225515961647034, 
                0.004825702402740717, 
                0.02590227872133255
            ], 
            "min" : [
                -0.04632924497127533, 
                -2.8362059367736947e-09, 
                -0.026968449354171753
            ], 
            "type" : "VEC3"
        }, 
        {
            "bufferView" : 5, 
            "componentType" : 5126, 
            "count" : 569, 
            "max" : [
                1.0, 
                1.0, 
                1.0
            ], 
            "min" : [
                -1.0, 
                -1.0, 
                -1.0
            ], 
            "type" : "VEC3"
        }, 
        {
            "bufferView" : 6, 
            "componentType" : 5123, 
            "count" : 1116, 
            "max" : [
                568
            ], 
            "min" : [
                0
            ], 
            "type" : "SCALAR"
        }, 
        {
            "bufferView" : 7, 
            "componentType" : 5126, 
            "count" : 569, 
            "max" : [
                0.045225515961647034, 
                0.004825702402740717, 
                0.02590227872133255
            ], 
            "min" : [
                -0.04632924497127533, 
                -2.8362059367736947e-09, 
                -0.026968449354171753
            ], 
            "type" : "VEC3"
        }, 
        {
            "bufferView" : 8, 
            "componentType" : 5126, 
            "count" : 569, 
            "max" : [
                1.0, 
                1.0, 
                1.0
            ], 
            "min" : [
                -1.0, 
                -1.0, 
                -1.0
            ], 
            "type" : "VEC3"
        }, 
        {
            "bufferView" : 9, 
            "componentType" : 5121, 
            "count" : 12, 
            "max" : [
                11
            ], 
            "min" : [
                0
            ], 
            "type" : "SCALAR"
        }, 
        {
            "bufferView" : 10, 
            "componentType" : 5126, 
            "count" : 12, 
            "max" : [
                0.8660253882408142, 
                1.0, 
                0.5000000596046448
            ], 
            "min" : [
                -0.866025447845459, 
                -1.0, 
                -1.0
            ], 
            "type" : "VEC3"
        }, 
        {
            "bufferView" : 11, 
            "componentType" : 5126, 
            "count" : 12, 
            "max" : [
                0.8401681184768677, 
                0.24253565073013306, 
                0.9701426029205322
            ], 
            "min" : [
                -0.8401679992675781, 
                -0.9999999403953552, 
                -0.4850713014602661
            ], 
            "type" : "VEC3"
        }
    ], 
    "asset" : {
        "generator" : "Khronos Blender glTF 2.0 exporter", 
        "version" : "2.0"
    }, 
    "bufferViews" : [
        {
            "buffer" : 0, 
            "byteLength" : 12, 
            "byteOffset" : 0, 
            "target" : 34963
        }, 
        {
            "buffer" : 0, 
            "byteLength" : 144, 
            "byteOffset" : 12, 
            "target" : 34962
        }, 
        {
            "buffer" : 0, 
            "byteLength" : 144, 
            "byteOffset" : 156, 
            "target" : 34962
        }, 
        {
            "buffer" : 0, 
            "byteLength" : 2232, 
            "byteOffset" : 300, 
            "target" : 34963
        }, 
        {
            "buffer" : 0, 
            "byteLength" : 6828, 
            "byteOffset" : 2532, 
            "target" : 34962
        }, 
        {
            "buffer" : 0, 
            "byteLength" : 6828, 
            "byteOffset" : 9360, 
            "target" : 34962
        }, 
        {
            "buffer" : 0, 
            "byteLength" : 2232, 
            "byteOffset" : 16188, 
            "target" : 34963
        }, 
        {
            "buffer" : 0, 
            "byteLength" : 6828, 
            "byteOffset" : 18420, 
            "target" : 34962
        }, 
        {
            "buffer" : 0, 
            "byteLength" : 6828, 
            "byteOffset" : 25248, 
            "target" : 34962
        }, 
        {
            "buffer" : 0, 
            "byteLength" : 12, 
            "byteOffset" : 32076, 
            "target" : 34963
        }, 
        {
            "buffer" : 0, 
            "byteLength" : 144, 
            "byteOffset" : 32088, 
            "target" : 34962
        }, 
        {
            "buffer" : 0, 
            "byteLength" : 144, 
            "byteOffset" : 32232, 
            "target" : 34962
        }
    ], 
    "buffers" : [
        {
            "byteLength" : 32376, 
            "uri" : "data:application/octet-stream;base64,"
        }
    ], 
    "materials" : [
        {
            "name" : "Material.001", 
            "pbrMetallicRoughness" : {
                "baseColorFactor" : [
                    0.6400000190734865, 
                    0.6400000190734865, 
                    0.6400000190734865, 
                    1.0
                ], 
                "metallicFactor" : 0.0
            }
        }
    ], 
    "meshes" : [
        {
            "name" : "Cone.001", 
            "primitives" : [
                {
                    "attributes" : {
                        "NORMAL" : 2, 
                        "POSITION" : 1
                    }, 
                    "indices" : 0
                }
            ]
        }, 
        {
            "name" : "CUXMLID_6_", 
            "primitives" : [
                {
                    "attributes" : {
                        "NORMAL" : 5, 
                        "POSITION" : 4
                    }, 
                    "indices" : 3, 
                    "material" : 0
                }
            ]
        }, 
        {
            "name" : "CUXMLID_6_.001", 
            "primitives" : [
                {
                    "attributes" : {
                        "NORMAL" : 8, 
                        "POSITION" : 7
                    }, 
                    "indices" : 6, 
                    "material" : 0
                }
            ]
        }, 
        {
            "name" : "Cone", 
            "primitives" : [
                {
                    "attributes" : {
                        "NORMAL" : 11, 
                        "POSITION" : 10
                    }, 
                    "indices" : 9
                }
            ]
        }
    ], 
    "nodes" : [
        {
            "mesh" : 3, 
            "name" : "Cone", 
            "rotation" : [
                0.5, 
                -0.4999999701976776, 
                0.5, 
                0.4999999701976776
            ], 
            "scale" : [
                0.7007986307144165, 
                2.1201794147491455, 
                0.7007986307144165
            ], 
            "translation" : [
                -1.8237560987472534, 
                3.083707094192505, 
                3.874403476715088
            ]
        }, 
        {
            "mesh" : 0, 
            "name" : "Cone.001", 
            "rotation" : [
                -3.4560699191388267e-07, 
                0.7071068286895752, 
                -0.7071068286895752, 
                -3.4560699191388267e-07
            ], 
            "scale" : [
                0.7580721974372864, 
                2.2934534549713135, 
                0.7580721974372864
            ], 
            "translation" : [
                -1.5812612771987915, 
                3.083707094192505, 
                -1.0638818740844727
            ]
        }, 
        {
            "mesh" : 2, 
            "name" : "Curve.000", 
            "rotation" : [
                0.5, 
                0.5, 
                -0.5000000596046448, 
                0.4999999701976776
            ], 
            "scale" : [
                121.83313751220703, 
                121.83313751220703, 
                121.83313751220703
            ], 
            "translation" : [
                -6.936774253845215, 
                3.852609634399414, 
                3.9606151580810547
            ]
        }, 
        {
            "mesh" : 1, 
            "name" : "Curve.001", 
            "rotation" : [
                0.7071068286895752, 
                0.0, 
                -0.0, 
                0.7071068286895752
            ], 
            "scale" : [
                121.83313751220703, 
                121.83313751220703, 
                121.83313751220703
            ], 
            "translation" : [
                -2.453273057937622, 
                3.852609634399414, 
                -7.4231719970703125
            ]
        }
    ], 
    "scene" : 0, 
    "scenes" : [
        {
            "name" : "Scene", 
            "nodes" : [
                1, 
                0, 
                2, 
                3
            ]
        }
    ]
}
